<svg width="200" height="200" viewBox="0 0 200 200" fill="none" xmlns="http://www.w3.org/2000/svg">
<path d="M148.174 164.569C139.788 170.808 133.25 173.317 123.88 176.124C115.968 177.716 88 187 46 176C33.1194 172.626 19.2924 166.107 11.4384 162.098C8.0713 160.379 7.19681 155.93 9.24958 152.756C15.0737 143.749 25.3251 124.472 29.8272 95.0152C29.8272 95.0152 34.1438 45.0523 65.8648 34.8454C65.8648 34.8454 94.1483 25.1541 132.747 48.3533L142.908 54.132C145.575 55.7512 173.465 73.2804 175.84 106.123C177.456 128.46 166.742 150.565 148.174 164.569Z" fill="#A4D4A2"/>
<path d="M119 169C111.097 170.859 85.594 177.079 55 172C41.7196 169.795 15 155.594 15 155.594C15 155.594 31.0765 142.468 37.837 102.879C37.837 102.879 39.1642 52.0908 69.0545 43.0397C69.0545 43.0397 97.8264 33.1869 132.512 56.7902C147.86 67.2341 167.229 83.3409 168.914 114.164C169.572 126.185 160.393 145.539 147 157C137.037 165.526 122.765 167.943 119 169Z" fill="#88C9A1"/>
<path fill-rule="evenodd" clip-rule="evenodd" d="M140.917 12.1978C142.086 9.0887 145.897 7.94312 148.584 9.89521L163.479 20.7129C165.89 22.4645 166.259 25.9059 164.248 28.1059C155.176 38.0299 132.15 63.151 123.298 72.1793C112.161 83.5369 106.499 82.2283 115.35 70.1739C122.317 60.6859 135.584 26.3769 140.917 12.1978Z" fill="#A4D4A2"/>
<path d="M128 60L61 142" stroke="#A4D4A2" stroke-width="8" stroke-linecap="square"/>
<ellipse cx="57.5" cy="144" rx="11.5" ry="11" fill="#A4D4A2"/>
<ellipse cx="93.5" cy="146" rx="11.5" ry="11" fill="#A4D4A2"/>
<ellipse cx="60.5" cy="93" rx="11.5" ry="11" fill="#A4D4A2"/>
<path d="M128.188 60C119.71 68.6276 140.359 110.238 134 117" stroke="#A4D4A2" stroke-width="8" stroke-linecap="square"/>
<path d="M128 60C119.178 68.4878 85.7498 67.7719 78.8352 74.1376C72.1594 80.7394 60 93 60 93" stroke="#A4D4A2" stroke-width="8" stroke-linecap="square"/>
<path d="M102 92C95.286 101.566 105.171 128.695 100.193 136.178C98.2577 138.846 95.8601 142.12 93 146" stroke="#A4D4A2" stroke-width="8" stroke-linecap="square"/>
<ellipse cx="134" cy="121.5" rx="11" ry="11.5" fill="#A4D4A2"/>
</svg>
