<?xml version="1.0" encoding="UTF-8" standalone="no"?>
<!DOCTYPE svg PUBLIC "-//W3C//DTD SVG 1.1//EN" "http://www.w3.org/Graphics/SVG/1.1/DTD/svg11.dtd">
<svg width="100%" height="100%" viewBox="0 0 476 444" version="1.1" xmlns="http://www.w3.org/2000/svg" xmlns:xlink="http://www.w3.org/1999/xlink" xml:space="preserve" xmlns:serif="http://www.serif.com/" style="fill-rule:evenodd;clip-rule:evenodd;stroke-linejoin:round;stroke-miterlimit:2;">
    <path d="M450.4,172.9C436.5,153.5 418.1,140.5 394.9,134.5C393.7,134.2 392.5,133.6 390.4,132.8C393.4,128.6 395.7,124.5 398.9,121.3C415.7,104.2 432.8,87.4 449.7,70.4C455.2,64.8 460.6,59.2 465.6,53.2C472.2,45.3 472.1,39.6 465.2,31.8C452.1,17 437,5.4 417.1,1.3C415.5,1 415.2,0.8 412.9,0.4C410,0 408.4,-0.2 407.7,0.4C399.7,10.5 396.7,22.7 393,34.6C387.6,51.9 382.7,69.4 377,86.7C374.8,93.3 371.4,99.5 368.3,105.8C367.4,107.7 365.9,109.3 364.1,111.7C362.5,109.3 361.2,107.6 360.4,105.8C352,88 340.5,72.7 323.5,62.1C310.3,53.9 295.5,49.8 280.6,46.2C244.2,37.4 208.7,39.7 174.7,55.8C131.6,76.2 100.6,108 83,152.9C71.5,182.2 64.2,212.6 58.1,243.3C54.3,262.6 47,280.1 36.2,296.5C25.9,312.2 16.6,328.6 7,344.8C5.5,347.4 4.3,350.1 3,352.8C-1.6,363 -1.6,363 7,370C34.3,392.3 65.3,407.9 98.2,420C141,435.8 185.2,443.9 230.9,443C257.4,442.5 283.8,440.3 309.7,434C313.2,433.1 316.7,431.8 320.1,430.6C320.6,430.4 321.1,429.9 322,429.1C299.1,422.6 279.9,412.3 271.7,388.7C266.2,372.9 268.2,357.4 275.6,342.6C291.4,310.9 327.9,299.7 359,317.4C375.7,326.9 385,342.2 387.8,360.9C390.6,379.8 384.6,396.4 371.5,410.5C371.9,410.9 372.2,411.3 372.6,411.7C379.4,408.1 386.4,405 392.9,401C447.7,366.6 475.3,316.8 475.3,252.2C475.2,223.4 467.4,196.6 450.4,172.9Z" style="fill:rgb(0,175,4);fill-rule:nonzero;"/>
</svg>
