<svg xmlns="http://www.w3.org/2000/svg" viewBox="0 0 380.94 377.58"><defs><style>.cls-1{fill:#00af04;}.cls-2,.cls-4{fill:#ffcb42;}.cls-2{stroke:#6f5b03;stroke-miterlimit:10;}.cls-3{opacity:0.2;}.cls-5{fill:#c00000;}</style></defs><g id="Layer_1" data-name="Layer 1"><path class="cls-1" d="M339.87,133.55c-10.23-14.28-23.78-23.85-40.86-28.27-.88-.22-1.77-.66-3.31-1.25,2.21-3.09,3.9-6.11,6.26-8.47,12.37-12.59,25-25,37.4-37.47,4.05-4.13,8-8.25,11.71-12.67,4.86-5.81,4.78-10-.3-15.75C341.13,18.77,330,10.23,315.36,7.21c-1.18-.22-1.4-.37-3.1-.66-2.13-.3-3.31-.44-3.82,0C302.55,14,300.34,23,297.61,31.73c-4,12.74-7.58,25.62-11.78,38.36-1.62,4.86-4.12,9.42-6.4,14.06a28.72,28.72,0,0,1-3.1,4.34,33,33,0,0,1-2.72-4.34C267.42,71,259,59.78,246.44,52c-9.72-6-20.61-9.06-31.59-11.71-26.8-6.48-52.93-4.79-78,7.07-31.73,15-54.55,38.43-67.51,71.49-8.47,21.57-13.85,44-18.34,66.56a108.18,108.18,0,0,1-16.12,39.17c-7.58,11.56-14.43,23.63-21.5,35.56-1.1,1.91-2,3.9-2.95,5.89-3.38,7.51-3.38,7.51,2.95,12.66,20.1,16.42,42.92,27.91,67.15,36.82,31.51,11.63,64.05,17.6,97.7,16.93,19.51-.37,39-2,58-6.62,2.58-.67,5.15-1.62,7.66-2.51a6,6,0,0,0,1.4-1.1c-16.86-4.79-31-12.37-37-29.75-4.05-11.63-2.58-23,2.87-33.94,11.64-23.34,38.51-31.59,61.41-18.55,12.29,7,19.14,18.26,21.2,32,2.06,13.92-2.35,26.14-12,36.52.3.3.52.59.81.89,5-2.65,10.16-4.94,15-7.88,40.35-25.33,60.67-62,60.67-109.56-.08-21.2-5.82-40.94-18.34-58.39Z" transform="translate(-4.74 -6.27)"/><path class="cls-2" d="M37.72,140.06A22.69,22.69,0,0,1,36,148.49,17.62,17.62,0,0,1,26,158.06a24.61,24.61,0,0,1-6.78,1.56q-3.12.3-6.69.3T6,159.74l-.42-5.82,4.2-.12L9.4,124.94l-3.78.12-.36-6.42q1.5-.18,3.45-.24t4,0q2.07,0,4.05.12t3.6.27A20,20,0,0,1,28,120.83a16.88,16.88,0,0,1,5.52,4.5,18.7,18.7,0,0,1,3.3,6.51A25.69,25.69,0,0,1,37.72,140.06Zm-7.26-2.46a14.71,14.71,0,0,0-1.05-4.83,12.73,12.73,0,0,0-2.58-4.05,12,12,0,0,0-4-2.76,12.8,12.8,0,0,0-5.37-1l.24,28.32a12.16,12.16,0,0,0,9.69-4.8,14.85,14.85,0,0,0,2.46-5A17.67,17.67,0,0,0,30.46,137.6Z" transform="translate(-4.74 -6.27)"/><path class="cls-2" d="M64.54,148.7l-17.7.54a3.63,3.63,0,0,0,.57,2,6.38,6.38,0,0,0,1.44,1.59,6.87,6.87,0,0,0,1.95,1.08,7.57,7.57,0,0,0,2.16.45,8.69,8.69,0,0,0,3.15-.48,6.13,6.13,0,0,0,2.55-1.56l3.42,4.38a9.7,9.7,0,0,1-4.14,2.79,15.1,15.1,0,0,1-4.92.69,14.19,14.19,0,0,1-5-1,12.16,12.16,0,0,1-4.2-2.79,12.48,12.48,0,0,1-2.79-4.53,15.93,15.93,0,0,1-.81-6.3,13.41,13.41,0,0,1,1.44-5.61,12.3,12.3,0,0,1,7.08-6.09,13.08,13.08,0,0,1,4.14-.72,13.45,13.45,0,0,1,3.75.63,9.9,9.9,0,0,1,4,2.34,12.81,12.81,0,0,1,3,4.77A18.57,18.57,0,0,1,64.54,148.7Zm-6.3-5.22a4.87,4.87,0,0,0-2-3.48,5.46,5.46,0,0,0-3.45-1.14,6.37,6.37,0,0,0-3.63,1.38,5.18,5.18,0,0,0-2.07,3.66Z" transform="translate(-4.74 -6.27)"/><path class="cls-2" d="M84.94,140l-4.8.24a3.83,3.83,0,0,0-.93-2.67,3.41,3.41,0,0,0-2.37-.93,4.7,4.7,0,0,0-2.55.78,2.58,2.58,0,0,0-1.17,2.46,3.59,3.59,0,0,0,1.8,2.82q1.74,1.2,3.78,2.52a19.53,19.53,0,0,1,3.69,3.09,6.06,6.06,0,0,1,1.53,4.59,8.19,8.19,0,0,1-1.86,5q-1.74,2.1-5.88,2.16a11.35,11.35,0,0,1-3.9-.69,7.5,7.5,0,0,1-3.06-2A6.7,6.7,0,0,1,67.66,154a8.76,8.76,0,0,1,.54-4.5l5.1,1.92a2.63,2.63,0,0,0,0,2.49,2.44,2.44,0,0,0,1.59,1.11,2.6,2.6,0,0,0,1.89-.39,2.29,2.29,0,0,0,1-2,3.13,3.13,0,0,0-1.59-2.55q-1.59-1.11-3.57-2.43A23.24,23.24,0,0,1,69,144.62a6.74,6.74,0,0,1-1.89-4.44,7.9,7.9,0,0,1,1.11-5.34,8.16,8.16,0,0,1,3.48-2.94,8.65,8.65,0,0,1,4.32-.69,6.88,6.88,0,0,1,3.75,1.41V130.1l4.86-.18Z" transform="translate(-4.74 -6.27)"/><path class="cls-2" d="M111.7,148.7l-17.7.54a3.63,3.63,0,0,0,.57,2A6.38,6.38,0,0,0,96,152.81,6.87,6.87,0,0,0,98,153.89a7.57,7.57,0,0,0,2.16.45,8.69,8.69,0,0,0,3.15-.48,6.13,6.13,0,0,0,2.55-1.56l3.42,4.38a9.7,9.7,0,0,1-4.14,2.79,15.1,15.1,0,0,1-4.92.69,14.19,14.19,0,0,1-5-1,12.16,12.16,0,0,1-4.2-2.79,12.48,12.48,0,0,1-2.79-4.53,15.93,15.93,0,0,1-.81-6.3,13.41,13.41,0,0,1,1.44-5.61,12.3,12.3,0,0,1,7.08-6.09,13.08,13.08,0,0,1,4.14-.72,13.45,13.45,0,0,1,3.75.63,9.9,9.9,0,0,1,4,2.34,12.81,12.81,0,0,1,3,4.77A18.57,18.57,0,0,1,111.7,148.7Zm-6.3-5.22a4.87,4.87,0,0,0-2-3.48,5.46,5.46,0,0,0-3.45-1.14,6.37,6.37,0,0,0-3.63,1.38,5.18,5.18,0,0,0-2.07,3.66Z" transform="translate(-4.74 -6.27)"/><path class="cls-2" d="M137.5,139.64a6,6,0,0,1-.54,4.17,9.44,9.44,0,0,1-2,2.43l-4.44-3.42a1.9,1.9,0,0,0,.9-2.31,2.53,2.53,0,0,0-2.28-1.53,4,4,0,0,0-1.53.06,4.21,4.21,0,0,0-1.53.69,4.36,4.36,0,0,0-1.2,1.29,3.48,3.48,0,0,0-.48,1.86l-.12,11.76,5.4.12.12,4.5-15.3.18-.06-5.22h3.78l-.12-16.62-3.9-.18-.06-5h9.9L124,135.5a5.2,5.2,0,0,1,2.55-1.65,10.9,10.9,0,0,1,3.09-.45,8.87,8.87,0,0,1,2,.3,8.75,8.75,0,0,1,2.43,1,8.12,8.12,0,0,1,2.16,1.92A6.39,6.39,0,0,1,137.5,139.64Z" transform="translate(-4.74 -6.27)"/><path class="cls-2" d="M164.2,151.46a10.42,10.42,0,0,1-.84,4.14,7.71,7.71,0,0,1-2,2.73,8.09,8.09,0,0,1-2.94,1.53,13.21,13.21,0,0,1-3.54.48,10.81,10.81,0,0,1-3.69-.66,10,10,0,0,1-3.33-2,10.28,10.28,0,0,1-2.43-3.51,12.78,12.78,0,0,1-.93-5.13l-.12-13.5h-4.26l-.06-6.12,4.56-.06-.12-10.92h6.3l.12,10.8,10-.12-.18,5.16-9.72.12.18,14a15,15,0,0,0,.15,2.13,5.79,5.79,0,0,0,.57,1.86,3.38,3.38,0,0,0,1.23,1.32,4.21,4.21,0,0,0,2.07.57,3.16,3.16,0,0,0,2.64-.81,3.1,3.1,0,0,0,.78-1.77,1.72,1.72,0,0,0-.15-1.2.86.86,0,0,0-.66-.45,1,1,0,0,0-.78.36,2.05,2.05,0,0,0-.51,1.17l-4.26-1.86a5.62,5.62,0,0,1,1.32-3.24q1.26-1.62,4.38-1.74a5.45,5.45,0,0,1,4.62,1.92A7,7,0,0,1,164.2,151.46Z" transform="translate(-4.74 -6.27)"/><path class="cls-2" d="M191,148.7l-17.7.54a3.63,3.63,0,0,0,.57,2,6.38,6.38,0,0,0,1.44,1.59,6.87,6.87,0,0,0,1.95,1.08,7.57,7.57,0,0,0,2.16.45,8.69,8.69,0,0,0,3.15-.48,6.13,6.13,0,0,0,2.55-1.56l3.42,4.38a9.7,9.7,0,0,1-4.14,2.79,15.1,15.1,0,0,1-4.92.69,14.19,14.19,0,0,1-5-1,12.16,12.16,0,0,1-4.2-2.79,12.48,12.48,0,0,1-2.79-4.53,15.93,15.93,0,0,1-.81-6.3,13.41,13.41,0,0,1,1.44-5.61,12.3,12.3,0,0,1,7.08-6.09,13.08,13.08,0,0,1,4.14-.72,13.45,13.45,0,0,1,3.75.63,9.9,9.9,0,0,1,4,2.34,12.81,12.81,0,0,1,3,4.77A18.57,18.57,0,0,1,191,148.7Zm-6.3-5.22a4.87,4.87,0,0,0-1.95-3.48,5.46,5.46,0,0,0-3.45-1.14,6.37,6.37,0,0,0-3.63,1.38,5.18,5.18,0,0,0-2.07,3.66Z" transform="translate(-4.74 -6.27)"/><path class="cls-2" d="M223.36,117.5v5.64l-3.66.24-.42,32,3-.12V161l-9.6.24.06-4a6.48,6.48,0,0,1-2.88,1.65,13.91,13.91,0,0,1-3.6.63,12.83,12.83,0,0,1-8.76-3.21,12.1,12.1,0,0,1-4.08-9,14.48,14.48,0,0,1,.81-5.1,13.55,13.55,0,0,1,2.55-4.47,12.7,12.7,0,0,1,4.17-3.15,12.35,12.35,0,0,1,5.67-1.14,10.75,10.75,0,0,1,3.3.54,7.5,7.5,0,0,1,2.7,1.44V117.32ZM212.44,142a8.27,8.27,0,0,0-2.82-2.1,5.94,5.94,0,0,0-3-.66,7.23,7.23,0,0,0-2.91.81,6.78,6.78,0,0,0-2.13,1.74,8.2,8.2,0,0,0-1.29,2.25,6.79,6.79,0,0,0-.45,2.4,7.69,7.69,0,0,0,1.8,5.31A6.25,6.25,0,0,0,206.5,154a5.79,5.79,0,0,0,3.27-.87,8.13,8.13,0,0,0,2.61-2.61Z" transform="translate(-4.74 -6.27)"/><path class="cls-2" d="M256.18,153.92l-.06,6.06-15.3-.12V154.4h4.32l-.42-31.08-3.84.18-.12-5.76h15.3l-.12,5.76-4.32.12-.06,30.18Z" transform="translate(-4.74 -6.27)"/><path class="cls-2" d="M276.52,140l-4.8.24a3.83,3.83,0,0,0-.93-2.67,3.41,3.41,0,0,0-2.37-.93,4.7,4.7,0,0,0-2.55.78,2.58,2.58,0,0,0-1.17,2.46,3.59,3.59,0,0,0,1.8,2.82q1.74,1.2,3.78,2.52a19.53,19.53,0,0,1,3.69,3.09,6.06,6.06,0,0,1,1.53,4.59,8.19,8.19,0,0,1-1.86,5q-1.74,2.1-5.88,2.16a11.35,11.35,0,0,1-3.9-.69,7.5,7.5,0,0,1-3.06-2,6.7,6.7,0,0,1-1.56-3.33,8.76,8.76,0,0,1,.54-4.5l5.1,1.92a2.63,2.63,0,0,0,0,2.49,2.44,2.44,0,0,0,1.59,1.11,2.6,2.6,0,0,0,1.89-.39,2.29,2.29,0,0,0,1-2,3.13,3.13,0,0,0-1.59-2.55q-1.59-1.11-3.57-2.43a23.24,23.24,0,0,1-3.69-3.06,6.74,6.74,0,0,1-1.89-4.44,7.9,7.9,0,0,1,1.11-5.34,8.16,8.16,0,0,1,3.48-2.94,8.65,8.65,0,0,1,4.32-.69,6.88,6.88,0,0,1,3.75,1.41V130.1l4.86-.18Z" transform="translate(-4.74 -6.27)"/><path class="cls-2" d="M293.38,159.2l-13.08.24-.06-6.18,3.3.06L283.3,121,279,121l-.06-5,10.8.18.12,37.26,3.48.12Z" transform="translate(-4.74 -6.27)"/><path class="cls-2" d="M321.34,160l-9.36.24V158a7.25,7.25,0,0,1-4.47,1.95,12.44,12.44,0,0,1-5.34-.63,10.79,10.79,0,0,1-4.47-2.91,7.25,7.25,0,0,1-1.92-4.95,8.69,8.69,0,0,1,2.73-6.84,10.68,10.68,0,0,1,7.05-2.76,10.24,10.24,0,0,1,3.51.33,7.87,7.87,0,0,1,2.43,1.11,5.55,5.55,0,0,0-1-3.27,4.76,4.76,0,0,0-2.64-1.89,7,7,0,0,0-3.78.09,11.87,11.87,0,0,0-4.47,2.55l-2.88-4.5a13,13,0,0,1,2.76-2,13.79,13.79,0,0,1,3.75-1.44,14.36,14.36,0,0,1,4.38-.3,11.77,11.77,0,0,1,4.59,1.38,9.7,9.7,0,0,1,3.75,3.21,12.16,12.16,0,0,1,1.71,4.38,31.73,31.73,0,0,1,.51,5.67q0,3.18.09,7.14l2.82-.06Zm-9.66-7.14-.12-4.38a8.24,8.24,0,0,0-1.83-.87,8.46,8.46,0,0,0-2.43-.45,5.14,5.14,0,0,0-3.6,1.11,3.68,3.68,0,0,0-1.14,3,3.33,3.33,0,0,0,.9,2.31,4.56,4.56,0,0,0,2.25,1.35,5.48,5.48,0,0,0,2.94-.09A6.83,6.83,0,0,0,311.68,152.9Z" transform="translate(-4.74 -6.27)"/><path class="cls-2" d="M352.84,159.74l-9.54-.06q.18-9.42.18-17.76a3.16,3.16,0,0,0-1-2.4,4.29,4.29,0,0,0-2.49-1.14,5.7,5.7,0,0,0-3,.51,5.32,5.32,0,0,0-2.52,2.49l-.3,17.7-9.78.06v-4.32l3.36-.12.12-19.5-4,.18-.12-4.38,10.56-.18v4a6.8,6.8,0,0,1,3.27-2.1,14.63,14.63,0,0,1,3.39-.6,8.11,8.11,0,0,1,3.9.66,8.67,8.67,0,0,1,2.82,2,9.07,9.07,0,0,1,1.74,2.79,8,8,0,0,1,.6,2.91q0,7.26-.06,13.62l2.88-.18Z" transform="translate(-4.74 -6.27)"/><path class="cls-2" d="M385.18,117.5v5.64l-3.66.24-.42,32,3-.12V161l-9.6.24.06-4a6.59,6.59,0,0,1-2.88,1.65,13.91,13.91,0,0,1-3.6.63,12.83,12.83,0,0,1-8.76-3.21,12.25,12.25,0,0,1-2.91-3.87,11.94,11.94,0,0,1-1.17-5.16,14.48,14.48,0,0,1,.81-5.1,13.21,13.21,0,0,1,2.55-4.47,12.6,12.6,0,0,1,4.17-3.15,12.3,12.3,0,0,1,5.67-1.14,10.79,10.79,0,0,1,3.3.54,7.67,7.67,0,0,1,2.7,1.44V117.32ZM374.26,142a8.47,8.47,0,0,0-2.82-2.1,6,6,0,0,0-3-.66,7.23,7.23,0,0,0-2.91.81,6.67,6.67,0,0,0-2.13,1.74,8,8,0,0,0-1.29,2.25,6.79,6.79,0,0,0-.45,2.4,7.64,7.64,0,0,0,1.8,5.31,6.22,6.22,0,0,0,4.86,2.25,5.81,5.81,0,0,0,3.27-.87,8.13,8.13,0,0,0,2.61-2.61Z" transform="translate(-4.74 -6.27)"/><path class="cls-2" d="M136.45,212.06a22.69,22.69,0,0,1-1.77,8.43,17.62,17.62,0,0,1-9.93,9.57,24.61,24.61,0,0,1-6.78,1.56q-3.12.3-6.69.3t-6.51-.18l-.42-5.82,4.2-.12-.42-28.86-3.78.12-.36-6.42q1.5-.18,3.45-.24t4,0q2.07,0,4.05.12t3.6.27a20,20,0,0,1,7.62,2.07,16.88,16.88,0,0,1,5.52,4.5,18.7,18.7,0,0,1,3.3,6.51A25.69,25.69,0,0,1,136.45,212.06Zm-7.26-2.46a14.71,14.71,0,0,0-1.05-4.83,12.73,12.73,0,0,0-2.58-4.05,12,12,0,0,0-4-2.76,12.8,12.8,0,0,0-5.37-1l.24,28.32a12.16,12.16,0,0,0,9.69-4.8,14.85,14.85,0,0,0,2.46-5A17.67,17.67,0,0,0,129.19,209.6Z" transform="translate(-4.74 -6.27)"/><path class="cls-2" d="M163.27,220.7l-17.7.54a3.63,3.63,0,0,0,.57,2,6.38,6.38,0,0,0,1.44,1.59,6.87,6.87,0,0,0,1.95,1.08,7.57,7.57,0,0,0,2.16.45,8.69,8.69,0,0,0,3.15-.48,6.13,6.13,0,0,0,2.55-1.56l3.42,4.38a9.7,9.7,0,0,1-4.14,2.79,15.1,15.1,0,0,1-4.92.69,14.19,14.19,0,0,1-5-1,12.16,12.16,0,0,1-4.2-2.79,12.48,12.48,0,0,1-2.79-4.53,15.93,15.93,0,0,1-.81-6.3,13.41,13.41,0,0,1,1.44-5.61,12.3,12.3,0,0,1,7.08-6.09,13.08,13.08,0,0,1,4.14-.72,13.45,13.45,0,0,1,3.75.63,9.9,9.9,0,0,1,4,2.34,12.81,12.81,0,0,1,3,4.77A18.57,18.57,0,0,1,163.27,220.7Zm-6.3-5.22A4.87,4.87,0,0,0,155,212a5.46,5.46,0,0,0-3.45-1.14,6.37,6.37,0,0,0-3.63,1.38,5.18,5.18,0,0,0-2.07,3.66Z" transform="translate(-4.74 -6.27)"/><path class="cls-2" d="M193,201.32l-.36,5.7-2.46.06-7.26,24.6h-7.38l-6.66-21.24-2.82-.06-.3-5.28,12.18-.3.24,5-3.06.06,4.14,13.2,4.44-16.56h-2.52l.18-4.92Z" transform="translate(-4.74 -6.27)"/><path class="cls-2" d="M233.65,209.24a22.37,22.37,0,0,1-.87,8.55,19.17,19.17,0,0,1-3.66,6.72,18.54,18.54,0,0,1-5.82,4.56,19.41,19.41,0,0,1-7.35,2,18.71,18.71,0,0,1-7.77-1,17.87,17.87,0,0,1-6.27-3.84,20.28,20.28,0,0,1-4.41-6.18,23,23,0,0,1-2.07-7.95,21.4,21.4,0,0,1,.84-8.19,20.69,20.69,0,0,1,3.6-6.87,19.77,19.77,0,0,1,5.73-4.89,16.6,16.6,0,0,1,7.29-2.13,18.48,18.48,0,0,1,7.56,1.08,19,19,0,0,1,6.42,3.93,21.3,21.3,0,0,1,4.62,6.24A21.8,21.8,0,0,1,233.65,209.24Zm-7.8.66a16.31,16.31,0,0,0-1.29-5.16,14.25,14.25,0,0,0-2.7-4.14,11.57,11.57,0,0,0-3.9-2.7,10.64,10.64,0,0,0-5-.78,9,9,0,0,0-4.26,1.32,11.88,11.88,0,0,0-3.39,3.09,13.09,13.09,0,0,0-2.1,4.38,14.73,14.73,0,0,0-.45,5.25,18.62,18.62,0,0,0,1.35,5.52,14.29,14.29,0,0,0,2.64,4.17,11,11,0,0,0,3.63,2.61,8.82,8.82,0,0,0,4.32.72,11.55,11.55,0,0,0,4.44-1.26,11.92,11.92,0,0,0,3.69-3,12.86,12.86,0,0,0,2.4-4.44A14.62,14.62,0,0,0,225.85,209.9Z" transform="translate(-4.74 -6.27)"/><path class="cls-2" d="M266.11,217.7a16.07,16.07,0,0,1-.63,4.86,12.64,12.64,0,0,1-2.22,4.35,11.68,11.68,0,0,1-3.93,3.18,13.16,13.16,0,0,1-5.82,1.29,12.47,12.47,0,0,1-7.62-2.28l.06,12.36,5-.12.18,6.18-15.12-.24.06-5,3.42-.18-.18-32.16-3-.06v-5l9.72-.36v3.66a10.51,10.51,0,0,1,3.39-1.65,12.75,12.75,0,0,1,4.11-.57,13.24,13.24,0,0,1,8.64,3.45,12.45,12.45,0,0,1,2.79,3.72A11,11,0,0,1,266.11,217.7Zm-7.32,1.05a6.68,6.68,0,0,0-1.41-4.77,5.7,5.7,0,0,0-4.59-2,9.38,9.38,0,0,0-3.57.75,5.91,5.91,0,0,0-2.79,2.2v6.87a7,7,0,0,0,2.64,2.41,7.59,7.59,0,0,0,3.72,1,5.64,5.64,0,0,0,4.08-1.81A6.66,6.66,0,0,0,258.79,218.75Z" transform="translate(-4.74 -6.27)"/><path class="cls-2" d="M286.45,212l-4.8.24a3.83,3.83,0,0,0-.93-2.67,3.41,3.41,0,0,0-2.37-.93,4.7,4.7,0,0,0-2.55.78,2.58,2.58,0,0,0-1.17,2.46,3.59,3.59,0,0,0,1.8,2.82q1.74,1.2,3.78,2.52a19.53,19.53,0,0,1,3.69,3.09,6.06,6.06,0,0,1,1.53,4.59,8.19,8.19,0,0,1-1.86,5q-1.74,2.1-5.88,2.16a11.35,11.35,0,0,1-3.9-.69,7.5,7.5,0,0,1-3.06-2,6.7,6.7,0,0,1-1.56-3.33,8.76,8.76,0,0,1,.54-4.5l5.1,1.92a2.63,2.63,0,0,0,0,2.49,2.44,2.44,0,0,0,1.59,1.11,2.6,2.6,0,0,0,1.89-.39,2.29,2.29,0,0,0,1-2,3.13,3.13,0,0,0-1.59-2.55q-1.59-1.11-3.57-2.43a23.24,23.24,0,0,1-3.69-3.06,6.74,6.74,0,0,1-1.89-4.44,7.9,7.9,0,0,1,1.11-5.34,8.16,8.16,0,0,1,3.48-2.94,8.65,8.65,0,0,1,4.32-.69,6.88,6.88,0,0,1,3.75,1.41V202.1l4.86-.18Z" transform="translate(-4.74 -6.27)"/></g><g id="Layer_2" data-name="Layer 2"><rect class="cls-3" x="102.64" y="173.97" width="198.53" height="198.53" transform="translate(-36.53 20.37) rotate(-7)"/><polygon class="cls-4" points="301.5 346.81 110.75 377.58 86.55 180.54 283.6 156.34 289.36 203.28 301.5 346.81"/><path class="cls-5" d="M135.09,280.29a11.1,11.1,0,0,1-1.75,7.65,8.38,8.38,0,0,1-6.19,3.94q-7.87,1-12.49-6.08c-2.9-1.43-4.42-2.74-4.57-4a1.76,1.76,0,0,1,.94-1.64,8.76,8.76,0,0,1,3.88-1.67c2.64-.33,4.6,1,5.88,4.06.54.81,1.09,1.61,1.66,2.41a2.13,2.13,0,0,0,2,1.06q3.17-.39,2.61-4.89-.5-4-2.11-5.24a28.33,28.33,0,0,0-5.45-1.83,12.27,12.27,0,0,1-6.42-4.44,13.84,13.84,0,0,1-2.89-6.66,18.26,18.26,0,0,1,1.64-10.65q2.51-5.21,7.12-5.77a8.42,8.42,0,0,1,8.35,3.33,14.4,14.4,0,0,1,2.64,6.42,13.28,13.28,0,0,1,1,3.63,4.79,4.79,0,0,1,0,1.8,3.09,3.09,0,0,1-2.91,2.37,4.75,4.75,0,0,1-3.38-.89,6.21,6.21,0,0,1-2.46-3.67,2.42,2.42,0,0,1,.14-1.76,4.58,4.58,0,0,0,.39-1,.35.35,0,0,0-.14-.2,2.44,2.44,0,0,0,0-.54c-.13-1.07-.82-1.49-2.06-1.27s-2,1.14-2.54,2.76a9.86,9.86,0,0,0-.25,4.66q.72,4.53,6.9,6.55,4.87,1.58,6.9,3.45C133.46,274,134.65,276.69,135.09,280.29Z" transform="translate(-4.74 -6.27)"/><path class="cls-5" d="M159.13,280.66a9,9,0,0,1-2.36,4.7,7.64,7.64,0,0,1-2.76,1.92,12,12,0,0,1-5,1.58c-2.71.15-5-1.12-6.9-3.83a21.4,21.4,0,0,1-3.3-9.6,25.08,25.08,0,0,1,1-11.39q2-5.57,6.3-6.76a14.44,14.44,0,0,1,1.65-.31q6.38-.78,8,7c.51,2.36-.12,5.09-1.88,8.17a18.31,18.31,0,0,1-8,7.62,20.08,20.08,0,0,0,1.25,2.67,2.27,2.27,0,0,0,2.2,1.09,4.72,4.72,0,0,0,2.51-1.28,5.33,5.33,0,0,0,1.42-1.76c.13-.08.23-.5.28-1.25a2.14,2.14,0,0,1,.93-1.72,1.67,1.67,0,0,1,.73-.26,3.55,3.55,0,0,1,2.65,1A2.88,2.88,0,0,1,159.13,280.66ZM148.4,262.83c-1.43.17-2.47,1.34-3.11,3.48a16.68,16.68,0,0,0-.46,8.22,9.67,9.67,0,0,0,4.2-4.33,9.34,9.34,0,0,0,1.5-5.51C150.36,263.3,149.65,262.67,148.4,262.83Z" transform="translate(-4.74 -6.27)"/><path class="cls-5" d="M181.45,276.34a9.19,9.19,0,0,1-7.9,10.17,7.4,7.4,0,0,1-5-1.61,19.73,19.73,0,0,1-4-3.92c-1.08-1.39-1.59-2.29-1.53-2.69.28-1,1.46-1.54,3.53-1.8a4.73,4.73,0,0,1,2.09.13,2.51,2.51,0,0,1,1.66,1.59,2.65,2.65,0,0,0,.73,1.49c.89,1.05,1.64,1.54,2.24,1.46s.87-.42,1.2-1.1a3.89,3.89,0,0,0,.34-2.3,5,5,0,0,0-.46-1.57c-.25-.52-1.31-1.22-3.2-2.11a22.22,22.22,0,0,1-4.93-2.93,8.83,8.83,0,0,1-3-5.72,11.25,11.25,0,0,1,1.49-7.34,7.39,7.39,0,0,1,5.64-3.77,6.63,6.63,0,0,1,6.08,2.14,6.7,6.7,0,0,1,1.91,4.5,3.12,3.12,0,0,1,.85,2.07,3.66,3.66,0,0,1-.84,2.88,3.54,3.54,0,0,1-2.27,1.42c-1.22.15-2.37-.53-3.46-2a3.5,3.5,0,0,1-.59-1.67,13.5,13.5,0,0,1-.08-1.38c0-.6-.05-1-.08-1.27-.11-.93-.51-1.35-1.19-1.27-1,.13-1.43,1.21-1.18,3.25a6.51,6.51,0,0,0,2.65,4.73,18.13,18.13,0,0,0,3.75,1.72,9.9,9.9,0,0,1,3.56,2A8.22,8.22,0,0,1,181.45,276.34Z" transform="translate(-4.74 -6.27)"/><path class="cls-5" d="M204.12,273.56a9.18,9.18,0,0,1-7.9,10.16,7.4,7.4,0,0,1-5-1.61,19.41,19.41,0,0,1-4-3.91q-1.62-2.08-1.53-2.7c.28-.94,1.46-1.54,3.53-1.79a4.75,4.75,0,0,1,2.09.12,2.49,2.49,0,0,1,1.66,1.59,2.61,2.61,0,0,0,.73,1.49q1.33,1.57,2.25,1.47c.46-.06.86-.43,1.19-1.1a4,4,0,0,0,.35-2.3,5.11,5.11,0,0,0-.47-1.58c-.24-.51-1.31-1.21-3.2-2.11a21.84,21.84,0,0,1-4.93-2.93,8.78,8.78,0,0,1-3-5.72,11.21,11.21,0,0,1,1.5-7.34,7.34,7.34,0,0,1,5.63-3.76,6.58,6.58,0,0,1,6.08,2.14,6.7,6.7,0,0,1,1.91,4.49,3.23,3.23,0,0,1,.86,2.08,3.63,3.63,0,0,1-.85,2.87,3.56,3.56,0,0,1-2.27,1.43c-1.22.14-2.37-.53-3.46-2a3.46,3.46,0,0,1-.59-1.67c0-.32-.06-.78-.08-1.37s-.05-1-.08-1.27c-.11-.93-.51-1.35-1.19-1.27-1,.13-1.43,1.21-1.18,3.24a6.51,6.51,0,0,0,2.65,4.74,18.7,18.7,0,0,0,3.75,1.72,9.75,9.75,0,0,1,3.57,2A8.28,8.28,0,0,1,204.12,273.56Z" transform="translate(-4.74 -6.27)"/><path class="cls-5" d="M212.44,239a.77.77,0,0,1,.23.52,7.39,7.39,0,0,1-.12,1.7q-.2,1.5-.24,2a10.57,10.57,0,0,0,.4,2.35,1.5,1.5,0,0,1-.49,1.55,3.62,3.62,0,0,1-1.64.56,8.11,8.11,0,0,1-3-.23c-1.27-.35-2-.93-2.06-1.76a2.64,2.64,0,0,1,.19-1.08,3.79,3.79,0,0,0,.24-1.15,9.63,9.63,0,0,0-.26-2.14,2,2,0,0,1,.31-1.89,5.35,5.35,0,0,1,3-1A4.78,4.78,0,0,1,212.44,239Zm2.31,13a5.86,5.86,0,0,1-.55,2.43,6.1,6.1,0,0,0-.51,2.7l1.93,15.76a11.33,11.33,0,0,0,1,2.95,11.62,11.62,0,0,1,.92,2.64,1.8,1.8,0,0,1-.66,1.71,5.4,5.4,0,0,1-2.79,1.22,3.17,3.17,0,0,1-3.07-1q-1.34-1.58-2.38-10.1-.26-2-.7-6.36t-.69-6.31a16.43,16.43,0,0,0-.4-1.94,15.7,15.7,0,0,1-.38-1.72,4.22,4.22,0,0,1,.91-3.21,2.87,2.87,0,0,1,1.92-.78,9.46,9.46,0,0,1,2.95.1,3.54,3.54,0,0,1,2,.82A2.14,2.14,0,0,1,214.75,252Z" transform="translate(-4.74 -6.27)"/><path class="cls-5" d="M234.78,249q4,3.21,5.1,11.83a24.16,24.16,0,0,1-1.12,11.73q-2.19,5.65-7.17,6.27t-8.2-3.84a21.4,21.4,0,0,1-3.66-10.32,27,27,0,0,1,.57-10.41c.89-3.37,2.3-5.47,4.23-6.28a12,12,0,0,1,3.17-.83A9.11,9.11,0,0,1,234.78,249Zm-5.8,3.33c-1.19,0-2.07,1.27-2.64,3.69a19.76,19.76,0,0,0-.31,6.79,40.26,40.26,0,0,0,1.3,7.07c.81,2.44,2,3.69,3.62,3.75q1.53,0,2.28-4.47a31.73,31.73,0,0,0,.13-9.1Q232.4,252.24,229,252.34Z" transform="translate(-4.74 -6.27)"/><path class="cls-5" d="M270.07,269.27a2.66,2.66,0,0,1-1.31,2.2,6.43,6.43,0,0,1-3.11,1.23c-1.75.21-3-.2-3.79-1.22q-1.61-16.56-3-16.61t-4.72,15.6l.39,3.21a3.5,3.5,0,0,1-.71,2.87,3.34,3.34,0,0,1-2,1.06A6.3,6.3,0,0,1,247.4,276q-.71-.46-1.7-8.07.63,4.67-2.07-17.31a10.48,10.48,0,0,0-.27-1.3,10.38,10.38,0,0,1-.25-1.2,3,3,0,0,1,.31-1.83,2.3,2.3,0,0,1,1.92-1.22,6.26,6.26,0,0,1,3.14.52,4.12,4.12,0,0,1,2.11,1.45,3,3,0,0,1,.35,1.05,4.14,4.14,0,0,1-.25,1.55,4.17,4.17,0,0,0-.23,1.66l.91,7.4a64.68,64.68,0,0,1,3.93-10.12q2.56-4.34,6.46-4.54c1.54-.08,2.81,1.21,3.79,3.88a44.16,44.16,0,0,1,1.94,9.12c.39,3.22.79,6.44,1.18,9.65a6.15,6.15,0,0,0,.92,1.25A2.07,2.07,0,0,1,270.07,269.27Z" transform="translate(-4.74 -6.27)"/><path class="cls-5" d="M291.26,262.86A9.17,9.17,0,0,1,283.37,273a7.4,7.4,0,0,1-5-1.61,19.41,19.41,0,0,1-4-3.91q-1.62-2.08-1.53-2.7c.28-.94,1.46-1.54,3.53-1.79a4.55,4.55,0,0,1,2.08.12,2.51,2.51,0,0,1,1.67,1.59,2.68,2.68,0,0,0,.72,1.49c.9,1.05,1.64,1.54,2.25,1.47s.87-.43,1.2-1.1a4,4,0,0,0,.34-2.3,5.09,5.09,0,0,0-.46-1.58c-.25-.51-1.31-1.21-3.2-2.11a21.84,21.84,0,0,1-4.93-2.93,8.74,8.74,0,0,1-3-5.72,11.26,11.26,0,0,1,1.49-7.34,7.36,7.36,0,0,1,5.63-3.76,6.6,6.6,0,0,1,6.09,2.14,6.74,6.74,0,0,1,1.91,4.49,3.2,3.2,0,0,1,.85,2.08,3.66,3.66,0,0,1-.84,2.87,3.58,3.58,0,0,1-2.28,1.43c-1.21.14-2.36-.53-3.45-2a3.36,3.36,0,0,1-.59-1.67c0-.32-.07-.78-.09-1.37s0-1-.07-1.27c-.12-.93-.51-1.36-1.19-1.27-1,.13-1.43,1.21-1.18,3.24a6.48,6.48,0,0,0,2.65,4.74,18.7,18.7,0,0,0,3.75,1.72,9.61,9.61,0,0,1,3.56,2A8.16,8.16,0,0,1,291.26,262.86Z" transform="translate(-4.74 -6.27)"/></g></svg>