<svg xmlns="http://www.w3.org/2000/svg" viewBox="0 0 380.94 377.58"><defs><style>.cls-1{fill:#00af04;}.cls-2,.cls-4{fill:#ffcb42;}.cls-2{stroke:#6f5b03;stroke-miterlimit:10;}.cls-3{opacity:0.2;}.cls-5{font-size:54px;fill:#c00000;font-family:MarkerFelt-Thin, Marker Felt;font-weight:200;}.cls-6{letter-spacing:0.03em;}.cls-7{letter-spacing:0.08em;}.cls-8{letter-spacing:0.05em;}.cls-9{letter-spacing:0.04em;}.cls-10{letter-spacing:0.03em;}.cls-11{letter-spacing:0.04em;}.cls-12{letter-spacing:0.04em;}</style></defs><g id="Layer_1" data-name="Layer 1"><path class="cls-1" d="M339.87,133.55c-10.23-14.28-23.78-23.85-40.86-28.27-.88-.22-1.77-.66-3.31-1.25,2.21-3.09,3.9-6.11,6.26-8.47,12.37-12.59,25-25,37.4-37.47,4.05-4.13,8-8.25,11.71-12.67,4.86-5.81,4.78-10-.3-15.75C341.13,18.77,330,10.23,315.36,7.21c-1.18-.22-1.4-.37-3.1-.66-2.13-.3-3.31-.44-3.82,0C302.55,14,300.34,23,297.61,31.73c-4,12.74-7.58,25.62-11.78,38.36-1.62,4.86-4.12,9.42-6.4,14.06a28.72,28.72,0,0,1-3.1,4.34,33,33,0,0,1-2.72-4.34C267.42,71,259,59.78,246.44,52c-9.72-6-20.61-9.06-31.59-11.71-26.8-6.48-52.93-4.79-78,7.07-31.73,15-54.55,38.43-67.51,71.49-8.47,21.57-13.85,44-18.34,66.56a108.18,108.18,0,0,1-16.12,39.17c-7.58,11.56-14.43,23.63-21.5,35.56-1.1,1.91-2,3.9-2.95,5.89-3.38,7.51-3.38,7.51,2.95,12.66,20.1,16.42,42.92,27.91,67.15,36.82,31.51,11.63,64.05,17.6,97.7,16.93,19.51-.37,39-2,58-6.62,2.58-.67,5.15-1.62,7.66-2.51a6,6,0,0,0,1.4-1.1c-16.86-4.79-31-12.37-37-29.75-4.05-11.63-2.58-23,2.87-33.94,11.64-23.34,38.51-31.59,61.41-18.55,12.29,7,19.14,18.26,21.2,32,2.06,13.92-2.35,26.14-12,36.52.3.3.52.59.81.89,5-2.65,10.16-4.94,15-7.88,40.35-25.33,60.67-62,60.67-109.56-.08-21.2-5.82-40.94-18.34-58.39Z" transform="translate(-4.74 -6.27)"/><path class="cls-2" d="M37.72,140.06A22.69,22.69,0,0,1,36,148.49,17.62,17.62,0,0,1,26,158.06a24.61,24.61,0,0,1-6.78,1.56q-3.12.3-6.69.3T6,159.74l-.42-5.82,4.2-.12L9.4,124.94l-3.78.12-.36-6.42q1.5-.18,3.45-.24t4,0q2.07,0,4.05.12t3.6.27A20,20,0,0,1,28,120.83a16.88,16.88,0,0,1,5.52,4.5,18.7,18.7,0,0,1,3.3,6.51A25.69,25.69,0,0,1,37.72,140.06Zm-7.26-2.46a14.71,14.71,0,0,0-1.05-4.83,12.73,12.73,0,0,0-2.58-4.05,12,12,0,0,0-4-2.76,12.8,12.8,0,0,0-5.37-1l.24,28.32a12.16,12.16,0,0,0,9.69-4.8,14.85,14.85,0,0,0,2.46-5A17.67,17.67,0,0,0,30.46,137.6Z" transform="translate(-4.74 -6.27)"/><path class="cls-2" d="M64.54,148.7l-17.7.54a3.63,3.63,0,0,0,.57,2,6.38,6.38,0,0,0,1.44,1.59,6.87,6.87,0,0,0,1.95,1.08,7.57,7.57,0,0,0,2.16.45,8.69,8.69,0,0,0,3.15-.48,6.13,6.13,0,0,0,2.55-1.56l3.42,4.38a9.7,9.7,0,0,1-4.14,2.79,15.1,15.1,0,0,1-4.92.69,14.19,14.19,0,0,1-5-1,12.16,12.16,0,0,1-4.2-2.79,12.48,12.48,0,0,1-2.79-4.53,15.93,15.93,0,0,1-.81-6.3,13.41,13.41,0,0,1,1.44-5.61,12.3,12.3,0,0,1,7.08-6.09,13.08,13.08,0,0,1,4.14-.72,13.45,13.45,0,0,1,3.75.63,9.9,9.9,0,0,1,4,2.34,12.81,12.81,0,0,1,3,4.77A18.57,18.57,0,0,1,64.54,148.7Zm-6.3-5.22a4.87,4.87,0,0,0-2-3.48,5.46,5.46,0,0,0-3.45-1.14,6.37,6.37,0,0,0-3.63,1.38,5.18,5.18,0,0,0-2.07,3.66Z" transform="translate(-4.74 -6.27)"/><path class="cls-2" d="M84.94,140l-4.8.24a3.83,3.83,0,0,0-.93-2.67,3.41,3.41,0,0,0-2.37-.93,4.7,4.7,0,0,0-2.55.78,2.58,2.58,0,0,0-1.17,2.46,3.59,3.59,0,0,0,1.8,2.82q1.74,1.2,3.78,2.52a19.53,19.53,0,0,1,3.69,3.09,6.06,6.06,0,0,1,1.53,4.59,8.19,8.19,0,0,1-1.86,5q-1.74,2.1-5.88,2.16a11.35,11.35,0,0,1-3.9-.69,7.5,7.5,0,0,1-3.06-2A6.7,6.7,0,0,1,67.66,154a8.76,8.76,0,0,1,.54-4.5l5.1,1.92a2.63,2.63,0,0,0,0,2.49,2.44,2.44,0,0,0,1.59,1.11,2.6,2.6,0,0,0,1.89-.39,2.29,2.29,0,0,0,1-2,3.13,3.13,0,0,0-1.59-2.55q-1.59-1.11-3.57-2.43A23.24,23.24,0,0,1,69,144.62a6.74,6.74,0,0,1-1.89-4.44,7.9,7.9,0,0,1,1.11-5.34,8.16,8.16,0,0,1,3.48-2.94,8.65,8.65,0,0,1,4.32-.69,6.88,6.88,0,0,1,3.75,1.41V130.1l4.86-.18Z" transform="translate(-4.74 -6.27)"/><path class="cls-2" d="M111.7,148.7l-17.7.54a3.63,3.63,0,0,0,.57,2A6.38,6.38,0,0,0,96,152.81,6.87,6.87,0,0,0,98,153.89a7.57,7.57,0,0,0,2.16.45,8.69,8.69,0,0,0,3.15-.48,6.13,6.13,0,0,0,2.55-1.56l3.42,4.38a9.7,9.7,0,0,1-4.14,2.79,15.1,15.1,0,0,1-4.92.69,14.19,14.19,0,0,1-5-1,12.16,12.16,0,0,1-4.2-2.79,12.48,12.48,0,0,1-2.79-4.53,15.93,15.93,0,0,1-.81-6.3,13.41,13.41,0,0,1,1.44-5.61,12.3,12.3,0,0,1,7.08-6.09,13.08,13.08,0,0,1,4.14-.72,13.45,13.45,0,0,1,3.75.63,9.9,9.9,0,0,1,4,2.34,12.81,12.81,0,0,1,3,4.77A18.57,18.57,0,0,1,111.7,148.7Zm-6.3-5.22a4.87,4.87,0,0,0-2-3.48,5.46,5.46,0,0,0-3.45-1.14,6.37,6.37,0,0,0-3.63,1.38,5.18,5.18,0,0,0-2.07,3.66Z" transform="translate(-4.74 -6.27)"/><path class="cls-2" d="M137.5,139.64a6,6,0,0,1-.54,4.17,9.44,9.44,0,0,1-2,2.43l-4.44-3.42a1.9,1.9,0,0,0,.9-2.31,2.53,2.53,0,0,0-2.28-1.53,4,4,0,0,0-1.53.06,4.21,4.21,0,0,0-1.53.69,4.36,4.36,0,0,0-1.2,1.29,3.48,3.48,0,0,0-.48,1.86l-.12,11.76,5.4.12.12,4.5-15.3.18-.06-5.22h3.78l-.12-16.62-3.9-.18-.06-5h9.9L124,135.5a5.2,5.2,0,0,1,2.55-1.65,10.9,10.9,0,0,1,3.09-.45,8.87,8.87,0,0,1,2,.3,8.75,8.75,0,0,1,2.43,1,8.12,8.12,0,0,1,2.16,1.92A6.39,6.39,0,0,1,137.5,139.64Z" transform="translate(-4.74 -6.27)"/><path class="cls-2" d="M164.2,151.46a10.42,10.42,0,0,1-.84,4.14,7.71,7.71,0,0,1-2,2.73,8.09,8.09,0,0,1-2.94,1.53,13.21,13.21,0,0,1-3.54.48,10.81,10.81,0,0,1-3.69-.66,10,10,0,0,1-3.33-2,10.28,10.28,0,0,1-2.43-3.51,12.78,12.78,0,0,1-.93-5.13l-.12-13.5h-4.26l-.06-6.12,4.56-.06-.12-10.92h6.3l.12,10.8,10-.12-.18,5.16-9.72.12.18,14a15,15,0,0,0,.15,2.13,5.79,5.79,0,0,0,.57,1.86,3.38,3.38,0,0,0,1.23,1.32,4.21,4.21,0,0,0,2.07.57,3.16,3.16,0,0,0,2.64-.81,3.1,3.1,0,0,0,.78-1.77,1.72,1.72,0,0,0-.15-1.2.86.86,0,0,0-.66-.45,1,1,0,0,0-.78.36,2.05,2.05,0,0,0-.51,1.17l-4.26-1.86a5.62,5.62,0,0,1,1.32-3.24q1.26-1.62,4.38-1.74a5.45,5.45,0,0,1,4.62,1.92A7,7,0,0,1,164.2,151.46Z" transform="translate(-4.74 -6.27)"/><path class="cls-2" d="M191,148.7l-17.7.54a3.63,3.63,0,0,0,.57,2,6.38,6.38,0,0,0,1.44,1.59,6.87,6.87,0,0,0,1.95,1.08,7.57,7.57,0,0,0,2.16.45,8.69,8.69,0,0,0,3.15-.48,6.13,6.13,0,0,0,2.55-1.56l3.42,4.38a9.7,9.7,0,0,1-4.14,2.79,15.1,15.1,0,0,1-4.92.69,14.19,14.19,0,0,1-5-1,12.16,12.16,0,0,1-4.2-2.79,12.48,12.48,0,0,1-2.79-4.53,15.93,15.93,0,0,1-.81-6.3,13.41,13.41,0,0,1,1.44-5.61,12.3,12.3,0,0,1,7.08-6.09,13.08,13.08,0,0,1,4.14-.72,13.45,13.45,0,0,1,3.75.63,9.9,9.9,0,0,1,4,2.34,12.81,12.81,0,0,1,3,4.77A18.57,18.57,0,0,1,191,148.7Zm-6.3-5.22a4.87,4.87,0,0,0-1.95-3.48,5.46,5.46,0,0,0-3.45-1.14,6.37,6.37,0,0,0-3.63,1.38,5.18,5.18,0,0,0-2.07,3.66Z" transform="translate(-4.74 -6.27)"/><path class="cls-2" d="M223.36,117.5v5.64l-3.66.24-.42,32,3-.12V161l-9.6.24.06-4a6.48,6.48,0,0,1-2.88,1.65,13.91,13.91,0,0,1-3.6.63,12.83,12.83,0,0,1-8.76-3.21,12.1,12.1,0,0,1-4.08-9,14.48,14.48,0,0,1,.81-5.1,13.55,13.55,0,0,1,2.55-4.47,12.7,12.7,0,0,1,4.17-3.15,12.35,12.35,0,0,1,5.67-1.14,10.75,10.75,0,0,1,3.3.54,7.5,7.5,0,0,1,2.7,1.44V117.32ZM212.44,142a8.27,8.27,0,0,0-2.82-2.1,5.94,5.94,0,0,0-3-.66,7.23,7.23,0,0,0-2.91.81,6.78,6.78,0,0,0-2.13,1.74,8.2,8.2,0,0,0-1.29,2.25,6.79,6.79,0,0,0-.45,2.4,7.69,7.69,0,0,0,1.8,5.31A6.25,6.25,0,0,0,206.5,154a5.79,5.79,0,0,0,3.27-.87,8.13,8.13,0,0,0,2.61-2.61Z" transform="translate(-4.74 -6.27)"/><path class="cls-2" d="M256.18,153.92l-.06,6.06-15.3-.12V154.4h4.32l-.42-31.08-3.84.18-.12-5.76h15.3l-.12,5.76-4.32.12-.06,30.18Z" transform="translate(-4.74 -6.27)"/><path class="cls-2" d="M276.52,140l-4.8.24a3.83,3.83,0,0,0-.93-2.67,3.41,3.41,0,0,0-2.37-.93,4.7,4.7,0,0,0-2.55.78,2.58,2.58,0,0,0-1.17,2.46,3.59,3.59,0,0,0,1.8,2.82q1.74,1.2,3.78,2.52a19.53,19.53,0,0,1,3.69,3.09,6.06,6.06,0,0,1,1.53,4.59,8.19,8.19,0,0,1-1.86,5q-1.74,2.1-5.88,2.16a11.35,11.35,0,0,1-3.9-.69,7.5,7.5,0,0,1-3.06-2,6.7,6.7,0,0,1-1.56-3.33,8.76,8.76,0,0,1,.54-4.5l5.1,1.92a2.63,2.63,0,0,0,0,2.49,2.44,2.44,0,0,0,1.59,1.11,2.6,2.6,0,0,0,1.89-.39,2.29,2.29,0,0,0,1-2,3.13,3.13,0,0,0-1.59-2.55q-1.59-1.11-3.57-2.43a23.24,23.24,0,0,1-3.69-3.06,6.74,6.74,0,0,1-1.89-4.44,7.9,7.9,0,0,1,1.11-5.34,8.16,8.16,0,0,1,3.48-2.94,8.65,8.65,0,0,1,4.32-.69,6.88,6.88,0,0,1,3.75,1.41V130.1l4.86-.18Z" transform="translate(-4.74 -6.27)"/><path class="cls-2" d="M293.38,159.2l-13.08.24-.06-6.18,3.3.06L283.3,121,279,121l-.06-5,10.8.18.12,37.26,3.48.12Z" transform="translate(-4.74 -6.27)"/><path class="cls-2" d="M321.34,160l-9.36.24V158a7.25,7.25,0,0,1-4.47,1.95,12.44,12.44,0,0,1-5.34-.63,10.79,10.79,0,0,1-4.47-2.91,7.25,7.25,0,0,1-1.92-4.95,8.69,8.69,0,0,1,2.73-6.84,10.68,10.68,0,0,1,7.05-2.76,10.24,10.24,0,0,1,3.51.33,7.87,7.87,0,0,1,2.43,1.11,5.55,5.55,0,0,0-1-3.27,4.76,4.76,0,0,0-2.64-1.89,7,7,0,0,0-3.78.09,11.87,11.87,0,0,0-4.47,2.55l-2.88-4.5a13,13,0,0,1,2.76-2,13.79,13.79,0,0,1,3.75-1.44,14.36,14.36,0,0,1,4.38-.3,11.77,11.77,0,0,1,4.59,1.38,9.7,9.7,0,0,1,3.75,3.21,12.16,12.16,0,0,1,1.71,4.38,31.73,31.73,0,0,1,.51,5.67q0,3.18.09,7.14l2.82-.06Zm-9.66-7.14-.12-4.38a8.24,8.24,0,0,0-1.83-.87,8.46,8.46,0,0,0-2.43-.45,5.14,5.14,0,0,0-3.6,1.11,3.68,3.68,0,0,0-1.14,3,3.33,3.33,0,0,0,.9,2.31,4.56,4.56,0,0,0,2.25,1.35,5.48,5.48,0,0,0,2.94-.09A6.83,6.83,0,0,0,311.68,152.9Z" transform="translate(-4.74 -6.27)"/><path class="cls-2" d="M352.84,159.74l-9.54-.06q.18-9.42.18-17.76a3.16,3.16,0,0,0-1-2.4,4.29,4.29,0,0,0-2.49-1.14,5.7,5.7,0,0,0-3,.51,5.32,5.32,0,0,0-2.52,2.49l-.3,17.7-9.78.06v-4.32l3.36-.12.12-19.5-4,.18-.12-4.38,10.56-.18v4a6.8,6.8,0,0,1,3.27-2.1,14.63,14.63,0,0,1,3.39-.6,8.11,8.11,0,0,1,3.9.66,8.67,8.67,0,0,1,2.82,2,9.07,9.07,0,0,1,1.74,2.79,8,8,0,0,1,.6,2.91q0,7.26-.06,13.62l2.88-.18Z" transform="translate(-4.74 -6.27)"/><path class="cls-2" d="M385.18,117.5v5.64l-3.66.24-.42,32,3-.12V161l-9.6.24.06-4a6.59,6.59,0,0,1-2.88,1.65,13.91,13.91,0,0,1-3.6.63,12.83,12.83,0,0,1-8.76-3.21,12.25,12.25,0,0,1-2.91-3.87,11.94,11.94,0,0,1-1.17-5.16,14.48,14.48,0,0,1,.81-5.1,13.21,13.21,0,0,1,2.55-4.47,12.6,12.6,0,0,1,4.17-3.15,12.3,12.3,0,0,1,5.67-1.14,10.79,10.79,0,0,1,3.3.54,7.67,7.67,0,0,1,2.7,1.44V117.32ZM374.26,142a8.47,8.47,0,0,0-2.82-2.1,6,6,0,0,0-3-.66,7.23,7.23,0,0,0-2.91.81,6.67,6.67,0,0,0-2.13,1.74,8,8,0,0,0-1.29,2.25,6.79,6.79,0,0,0-.45,2.4,7.64,7.64,0,0,0,1.8,5.31,6.22,6.22,0,0,0,4.86,2.25,5.81,5.81,0,0,0,3.27-.87,8.13,8.13,0,0,0,2.61-2.61Z" transform="translate(-4.74 -6.27)"/><path class="cls-2" d="M136.45,212.06a22.69,22.69,0,0,1-1.77,8.43,17.62,17.62,0,0,1-9.93,9.57,24.61,24.61,0,0,1-6.78,1.56q-3.12.3-6.69.3t-6.51-.18l-.42-5.82,4.2-.12-.42-28.86-3.78.12-.36-6.42q1.5-.18,3.45-.24t4,0q2.07,0,4.05.12t3.6.27a20,20,0,0,1,7.62,2.07,16.88,16.88,0,0,1,5.52,4.5,18.7,18.7,0,0,1,3.3,6.51A25.69,25.69,0,0,1,136.45,212.06Zm-7.26-2.46a14.71,14.71,0,0,0-1.05-4.83,12.73,12.73,0,0,0-2.58-4.05,12,12,0,0,0-4-2.76,12.8,12.8,0,0,0-5.37-1l.24,28.32a12.16,12.16,0,0,0,9.69-4.8,14.85,14.85,0,0,0,2.46-5A17.67,17.67,0,0,0,129.19,209.6Z" transform="translate(-4.74 -6.27)"/><path class="cls-2" d="M163.27,220.7l-17.7.54a3.63,3.63,0,0,0,.57,2,6.38,6.38,0,0,0,1.44,1.59,6.87,6.87,0,0,0,1.95,1.08,7.57,7.57,0,0,0,2.16.45,8.69,8.69,0,0,0,3.15-.48,6.13,6.13,0,0,0,2.55-1.56l3.42,4.38a9.7,9.7,0,0,1-4.14,2.79,15.1,15.1,0,0,1-4.92.69,14.19,14.19,0,0,1-5-1,12.16,12.16,0,0,1-4.2-2.79,12.48,12.48,0,0,1-2.79-4.53,15.93,15.93,0,0,1-.81-6.3,13.41,13.41,0,0,1,1.44-5.61,12.3,12.3,0,0,1,7.08-6.09,13.08,13.08,0,0,1,4.14-.72,13.45,13.45,0,0,1,3.75.63,9.9,9.9,0,0,1,4,2.34,12.81,12.81,0,0,1,3,4.77A18.57,18.57,0,0,1,163.27,220.7Zm-6.3-5.22A4.87,4.87,0,0,0,155,212a5.46,5.46,0,0,0-3.45-1.14,6.37,6.37,0,0,0-3.63,1.38,5.18,5.18,0,0,0-2.07,3.66Z" transform="translate(-4.74 -6.27)"/><path class="cls-2" d="M193,201.32l-.36,5.7-2.46.06-7.26,24.6h-7.38l-6.66-21.24-2.82-.06-.3-5.28,12.18-.3.24,5-3.06.06,4.14,13.2,4.44-16.56h-2.52l.18-4.92Z" transform="translate(-4.74 -6.27)"/><path class="cls-2" d="M233.65,209.24a22.37,22.37,0,0,1-.87,8.55,19.17,19.17,0,0,1-3.66,6.72,18.54,18.54,0,0,1-5.82,4.56,19.41,19.41,0,0,1-7.35,2,18.71,18.71,0,0,1-7.77-1,17.87,17.87,0,0,1-6.27-3.84,20.28,20.28,0,0,1-4.41-6.18,23,23,0,0,1-2.07-7.95,21.4,21.4,0,0,1,.84-8.19,20.69,20.69,0,0,1,3.6-6.87,19.77,19.77,0,0,1,5.73-4.89,16.6,16.6,0,0,1,7.29-2.13,18.48,18.48,0,0,1,7.56,1.08,19,19,0,0,1,6.42,3.93,21.3,21.3,0,0,1,4.62,6.24A21.8,21.8,0,0,1,233.65,209.24Zm-7.8.66a16.31,16.31,0,0,0-1.29-5.16,14.25,14.25,0,0,0-2.7-4.14,11.57,11.57,0,0,0-3.9-2.7,10.64,10.64,0,0,0-5-.78,9,9,0,0,0-4.26,1.32,11.88,11.88,0,0,0-3.39,3.09,13.09,13.09,0,0,0-2.1,4.38,14.73,14.73,0,0,0-.45,5.25,18.62,18.62,0,0,0,1.35,5.52,14.29,14.29,0,0,0,2.64,4.17,11,11,0,0,0,3.63,2.61,8.82,8.82,0,0,0,4.32.72,11.55,11.55,0,0,0,4.44-1.26,11.92,11.92,0,0,0,3.69-3,12.86,12.86,0,0,0,2.4-4.44A14.62,14.62,0,0,0,225.85,209.9Z" transform="translate(-4.74 -6.27)"/><path class="cls-2" d="M266.11,217.7a16.07,16.07,0,0,1-.63,4.86,12.64,12.64,0,0,1-2.22,4.35,11.68,11.68,0,0,1-3.93,3.18,13.16,13.16,0,0,1-5.82,1.29,12.47,12.47,0,0,1-7.62-2.28l.06,12.36,5-.12.18,6.18-15.12-.24.06-5,3.42-.18-.18-32.16-3-.06v-5l9.72-.36v3.66a10.51,10.51,0,0,1,3.39-1.65,12.75,12.75,0,0,1,4.11-.57,13.24,13.24,0,0,1,8.64,3.45,12.45,12.45,0,0,1,2.79,3.72A11,11,0,0,1,266.11,217.7Zm-7.32,1.05a6.68,6.68,0,0,0-1.41-4.77,5.7,5.7,0,0,0-4.59-2,9.38,9.38,0,0,0-3.57.75,5.91,5.91,0,0,0-2.79,2.2v6.87a7,7,0,0,0,2.64,2.41,7.59,7.59,0,0,0,3.72,1,5.64,5.64,0,0,0,4.08-1.81A6.66,6.66,0,0,0,258.79,218.75Z" transform="translate(-4.74 -6.27)"/><path class="cls-2" d="M286.45,212l-4.8.24a3.83,3.83,0,0,0-.93-2.67,3.41,3.41,0,0,0-2.37-.93,4.7,4.7,0,0,0-2.55.78,2.58,2.58,0,0,0-1.17,2.46,3.59,3.59,0,0,0,1.8,2.82q1.74,1.2,3.78,2.52a19.53,19.53,0,0,1,3.69,3.09,6.06,6.06,0,0,1,1.53,4.59,8.19,8.19,0,0,1-1.86,5q-1.74,2.1-5.88,2.16a11.35,11.35,0,0,1-3.9-.69,7.5,7.5,0,0,1-3.06-2,6.7,6.7,0,0,1-1.56-3.33,8.76,8.76,0,0,1,.54-4.5l5.1,1.92a2.63,2.63,0,0,0,0,2.49,2.44,2.44,0,0,0,1.59,1.11,2.6,2.6,0,0,0,1.89-.39,2.29,2.29,0,0,0,1-2,3.13,3.13,0,0,0-1.59-2.55q-1.59-1.11-3.57-2.43a23.24,23.24,0,0,1-3.69-3.06,6.74,6.74,0,0,1-1.89-4.44,7.9,7.9,0,0,1,1.11-5.34,8.16,8.16,0,0,1,3.48-2.94,8.65,8.65,0,0,1,4.32-.69,6.88,6.88,0,0,1,3.75,1.41V202.1l4.86-.18Z" transform="translate(-4.74 -6.27)"/></g><g id="Layer_2" data-name="Layer 2"><rect class="cls-3" x="102.64" y="173.97" width="198.53" height="198.53" transform="translate(-36.53 20.37) rotate(-7)"/><polygon class="cls-4" points="301.5 346.81 110.75 377.58 86.55 180.54 283.6 156.34 289.36 203.28 301.5 346.81"/><text class="cls-5" transform="translate(106.15 286.03) rotate(-7)"><tspan class="cls-6">S</tspan><tspan class="cls-7" x="28.24" y="0">e</tspan><tspan class="cls-8" x="52.86" y="0">s</tspan><tspan class="cls-9" x="75.71" y="0">s</tspan><tspan class="cls-10" x="97.9" y="0">i</tspan><tspan class="cls-11" x="110.43" y="0">o</tspan><tspan class="cls-12" x="134.89" y="0">n</tspan><tspan x="163.51" y="0">s</tspan></text></g></svg>